<svg width="16" height="16" xmlns="http://www.w3.org/2000/svg">
 <style type="text/css">.st0{fill:#8F83B8;}</style>

 <g>
  <title>background</title>
  <rect fill="none" id="canvas_background" height="402" width="582" y="-1" x="-1"/>
 </g>
 <g>
  <title>Layer 1</title>
  <g id="svg_1">
   <rect fill="#e8c4ba" id="svg_2" height="2" width="6" class="st0" y="3" x="10"/>
   <polygon fill="#e8c4ba" id="svg_3" points="3,7 9,7 9,1 3,1 3,3 0,3 0,5 3,5  " class="st0"/>
   <rect fill="#e8c4ba" id="svg_4" height="2" width="6" class="st0" y="11"/>
   <polygon fill="#e8c4ba" id="svg_5" points="13,9 7,9 7,15 13,15 13,13 16,13 16,11 13,11  " class="st0"/>
  </g>
  <rect id="svg_7" height="6.019108" width="6.019108" y="0.977707" x="2.984077" stroke-width="1.5" fill="#e8c4ba"/>
  <rect id="svg_8" height="6.019108" width="6.019108" y="9.003184" x="6.996815" stroke-width="1.5" fill="#e8c4ba"/>
  <rect stroke="null" id="svg_11" height="2.004877" width="4.584527" y="2.986527" x="-1.260224" stroke-opacity="null" stroke-width="1.5" fill="#e8c4ba"/>
  <rect stroke="null" id="svg_12" height="2.004877" width="4.584527" y="10.998621" x="11.589361" stroke-opacity="null" stroke-width="1.5" fill="#e8c4ba"/>
  <rect stroke="null" id="svg_14" height="2.004877" width="6.625343" y="2.986527" x="9.996109" stroke-opacity="null" stroke-width="1.5" fill="#e8c4ba"/>
  <rect stroke="null" id="svg_16" height="2.004877" width="6.650539" y="10.998621" x="-0.655641" stroke-opacity="null" stroke-width="1.5" fill="#e8c4ba"/>
 </g>
</svg>